<?xml version="1.0" standalone="no"?>
<!DOCTYPE svg PUBLIC "-//W3C//DTD SVG 20010904//EN"
 "http://www.w3.org/TR/2001/REC-SVG-20010904/DTD/svg10.dtd">
<svg version="1.0" xmlns="http://www.w3.org/2000/svg"
 width="500.000000pt" height="500.000000pt" viewBox="0 0 500.000000 500.000000"
 preserveAspectRatio="xMidYMid meet">

<g transform="translate(0.000000,500.000000) scale(0.100000,-0.100000)"
fill="#000000" stroke="none">
<path d="M0 2500 l0 -2500 2500 0 2500 0 0 2500 0 2500 -2500 0 -2500 0 0
-2500z m3000 15 l0 -185 -29 0 -28 0 -2 185 -1 185 30 0 30 0 0 -185z m-1132
120 c13 -37 92 -248 108 -288 6 -16 2 -18 -32 -15 -34 3 -39 7 -48 36 l-9 32
-68 0 c-67 0 -67 0 -74 -31 -8 -34 -21 -42 -58 -37 l-25 3 49 125 c27 68 49
129 49 136 0 6 7 28 15 48 14 33 19 37 48 34 27 -3 33 -9 45 -43z m202 -35 c0
-7 6 -7 19 0 11 5 41 10 66 10 38 0 52 -5 77 -30 20 -21 28 -37 25 -50 -3 -11
-1 -20 4 -20 4 0 7 -26 4 -57 -2 -32 -4 -73 -4 -90 -1 -30 -4 -33 -31 -33
l-30 0 0 93 c0 106 -14 131 -66 125 -46 -5 -64 -42 -66 -136 l-1 -82 -28 0
-29 0 0 133 c0 74 3 137 7 140 10 11 53 8 53 -3z m422 -1 c14 -8 23 -8 31 0 6
6 24 11 39 11 l28 0 0 -165 0 -165 -32 -36 c-38 -40 -90 -56 -144 -44 -42 10
-94 55 -94 82 0 27 44 23 74 -7 51 -51 126 -23 126 48 0 27 -1 28 -22 13 -48
-34 -136 -9 -173 47 -41 64 -21 171 39 208 34 21 96 25 128 8z m348 -4 c34
-17 60 -71 60 -121 l0 -33 -107 -3 -108 -3 32 -32 c38 -39 65 -42 99 -8 31 31
74 34 74 5 0 -24 -31 -57 -66 -70 -63 -24 -141 -1 -174 52 -30 48 -24 146 10
184 14 14 34 30 45 34 33 14 104 11 135 -5z m426 -4 c43 -26 67 -82 62 -143
-13 -131 -182 -174 -262 -65 -26 36 -28 122 -3 161 42 63 139 86 203 47z
m-976 -141 c0 -5 -4 -10 -10 -10 -5 0 -10 5 -10 10 0 6 5 10 10 10 6 0 10 -4
10 -10z"/>
<path d="M1817 2564 c-3 -6 -15 -33 -26 -62 l-21 -52 51 0 c48 0 50 1 43 22
-17 54 -41 101 -47 92z"/>
<path d="M2391 2524 c-24 -31 -27 -81 -6 -110 8 -12 12 -23 10 -26 -6 -5 16
-9 59 -10 41 -1 66 33 66 88 0 55 -26 84 -74 84 -25 0 -40 -7 -55 -26z"/>
<path d="M2702 2536 c-3 -6 -7 -19 -7 -28 -1 -16 8 -18 72 -18 77 0 86 7 53
40 -16 16 -32 20 -66 19 -25 -2 -48 -7 -52 -13z"/>
<path d="M3137 2533 c-56 -63 -7 -179 67 -157 43 13 56 34 56 90 0 43 -4 56
-22 68 -30 21 -81 20 -101 -1z"/>
</g>
</svg>
